<svg width="18" height="18" viewBox="0 0 18 18" fill="none" xmlns="http://www.w3.org/2000/svg">
<path d="M9.375 11.0625H7.5C7.1925 11.0625 6.9375 10.8075 6.9375 10.5C6.9375 10.1925 7.1925 9.9375 7.5 9.9375H9.375C11.34 9.9375 12.9375 8.34 12.9375 6.375C12.9375 4.41 11.34 2.8125 9.375 2.8125H5.625C3.66 2.8125 2.0625 4.41 2.0625 6.375C2.0625 7.2 2.355 8.0025 2.88 8.64C3.075 8.88 3.045 9.2325 2.805 9.435C2.565 9.63 2.2125 9.6 2.01 9.36C1.32 8.52 0.9375 7.4625 0.9375 6.375C0.9375 3.7875 3.0375 1.6875 5.625 1.6875H9.375C11.9625 1.6875 14.0625 3.7875 14.0625 6.375C14.0625 8.9625 11.9625 11.0625 9.375 11.0625Z" fill="#0668E1"/>
<path d="M12.375 16.3125H8.625C6.0375 16.3125 3.9375 14.2125 3.9375 11.625C3.9375 9.0375 6.0375 6.9375 8.625 6.9375H10.5C10.8075 6.9375 11.0625 7.1925 11.0625 7.5C11.0625 7.8075 10.8075 8.0625 10.5 8.0625H8.625C6.66 8.0625 5.0625 9.66 5.0625 11.625C5.0625 13.59 6.66 15.1875 8.625 15.1875H12.375C14.34 15.1875 15.9375 13.59 15.9375 11.625C15.9375 10.8 15.645 9.9975 15.12 9.36C14.925 9.12 14.955 8.7675 15.195 8.565C15.435 8.3625 15.7875 8.4 15.99 8.64C16.6875 9.48 17.07 10.5375 17.07 11.625C17.0625 14.2125 14.9625 16.3125 12.375 16.3125Z" fill="#0668E1"/>
</svg>
