<svg width="33" height="32" viewBox="0 0 33 32" fill="none" xmlns="http://www.w3.org/2000/svg">
<path d="M16.1332 21C13.3502 21 11.0916 18.76 11.0916 16C11.0916 13.24 13.3502 11 16.1332 11C18.9161 11 21.1748 13.24 21.1748 16C21.1748 18.76 18.9161 21 16.1332 21ZM16.1332 13C14.4661 13 13.1082 14.3467 13.1082 16C13.1082 17.6533 14.4661 19 16.1332 19C17.8002 19 19.1581 17.6533 19.1581 16C19.1581 14.3467 17.8002 13 16.1332 13Z" fill="#212121"/>
<path d="M20.4486 29.5866C20.1663 29.5866 19.884 29.5466 19.6016 29.48C18.7681 29.2533 18.069 28.7333 17.6253 28L17.464 27.7333C16.6708 26.3733 15.5818 26.3733 14.7886 27.7333L14.6407 27.9866C14.197 28.7333 13.4979 29.2666 12.6644 29.48C11.8174 29.7066 10.9435 29.5866 10.2041 29.1466L7.89167 27.8266C7.07157 27.36 6.48003 26.6 6.22459 25.68C5.98259 24.76 6.10359 23.8133 6.57414 23C6.96402 22.32 7.07157 21.7066 6.84302 21.32C6.61447 20.9333 6.03637 20.7066 5.24315 20.7066C3.28029 20.7066 1.68042 19.12 1.68042 17.1733V14.8266C1.68042 12.88 3.28029 11.2933 5.24315 11.2933C6.03637 11.2933 6.61447 11.0666 6.84302 10.68C7.07157 10.2933 6.97746 9.67998 6.57414 8.99998C6.10359 8.18664 5.98259 7.22664 6.22459 6.31997C6.46658 5.39997 7.05813 4.63998 7.89167 4.17331L10.2175 2.85331C11.7367 1.95998 13.7399 2.47997 14.6541 4.01331L14.8155 4.27997C15.6087 5.63998 16.6977 5.63998 17.4909 4.27997L17.6388 4.02664C18.553 2.47997 20.5562 1.95998 22.0888 2.86664L24.4012 4.18664C25.2213 4.65331 25.8129 5.41331 26.0683 6.33331C26.3103 7.25331 26.1893 8.19998 25.7188 9.01331C25.3289 9.69331 25.2213 10.3066 25.4499 10.6933C25.6785 11.08 26.2566 11.3066 27.0498 11.3066C29.0126 11.3066 30.6125 12.8933 30.6125 14.84V17.1866C30.6125 19.1333 29.0126 20.72 27.0498 20.72C26.2566 20.72 25.6785 20.9466 25.4499 21.3333C25.2213 21.72 25.3155 22.3333 25.7188 23.0133C26.1893 23.8266 26.3238 24.7866 26.0683 25.6933C25.8263 26.6133 25.2348 27.3733 24.4012 27.84L22.0754 29.16C21.5645 29.44 21.0133 29.5866 20.4486 29.5866ZM16.133 24.6533C17.3296 24.6533 18.4454 25.4 19.2118 26.72L19.3596 26.9733C19.521 27.2533 19.7899 27.4533 20.1125 27.5333C20.4352 27.6133 20.7578 27.5733 21.0267 27.4133L23.3526 26.08C23.7021 25.88 23.971 25.5466 24.0786 25.1466C24.1861 24.7466 24.1324 24.3333 23.9307 23.9866C23.1644 22.68 23.0703 21.3333 23.6618 20.3066C24.2534 19.28 25.4768 18.6933 27.0094 18.6933C27.8699 18.6933 28.5555 18.0133 28.5555 17.16V14.8133C28.5555 13.9733 27.8699 13.28 27.0094 13.28C25.4768 13.28 24.2534 12.6933 23.6618 11.6666C23.0703 10.64 23.1644 9.29331 23.9307 7.98664C24.1324 7.63998 24.1861 7.22664 24.0786 6.82664C23.971 6.42664 23.7156 6.10664 23.366 5.89331L21.0402 4.57331C20.4621 4.22664 19.6957 4.42664 19.3462 5.01331L19.1983 5.26664C18.432 6.58664 17.3161 7.33331 16.1196 7.33331C14.923 7.33331 13.8072 6.58664 13.0408 5.26664L12.8929 4.99997C12.5568 4.43998 11.804 4.23997 11.2259 4.57331L8.9 5.90664C8.55044 6.10664 8.28156 6.43998 8.17401 6.83998C8.06645 7.23997 8.12023 7.65331 8.32189 7.99998C9.08822 9.30664 9.18233 10.6533 8.59078 11.68C7.99923 12.7066 6.7758 13.2933 5.24315 13.2933C4.38272 13.2933 3.69706 13.9733 3.69706 14.8266V17.1733C3.69706 18.0133 4.38272 18.7066 5.24315 18.7066C6.7758 18.7066 7.99923 19.2933 8.59078 20.32C9.18233 21.3466 9.08822 22.6933 8.32189 24C8.12023 24.3466 8.06645 24.76 8.17401 25.16C8.28156 25.56 8.537 25.88 8.88655 26.0933L11.2124 27.4133C11.4947 27.5866 11.8308 27.6266 12.1401 27.5466C12.4627 27.4666 12.7316 27.2533 12.9064 26.9733L13.0543 26.72C13.8206 25.4133 14.9365 24.6533 16.133 24.6533Z" fill="#212121"/>
</svg>
